<svg width="500" height="500" viewBox="0 0 500 500" fill="none" xmlns="http://www.w3.org/2000/svg">
<g clip-path="url(#clip0_0_1)">
<circle cx="250" cy="250" r="250" fill="white"/>
<path d="M362 192V314.869L254 377V255.548L362 192Z" fill="#1F4D50"/>
<path d="M246 254.58V377L138 314.72L138.011 191L246 254.58Z" fill="#3A8589"/>
<path d="M250.259 120L359 183.425L250.795 248L142 183.176L250.259 120Z" fill="#4AB4BA"/>
<path d="M246 458V386.964L134.159 322L73 357.523L246 458Z" fill="#2D696C"/>
<path d="M68.564 149.769L129.691 185.936L129.691 315.301L68.564 350.488L68.564 149.769Z" fill="#255C60"/>
<path d="M246 42V112.825L133.496 178C133.496 178 72.4668 142.209 73.0035 142.209C73.5403 142.209 246 42 246 42Z" fill="#3D9095"/>
<path d="M254 458L254 387.005L366.637 322L428 357.614L254 458Z" fill="#1D4A4E"/>
<path d="M431.785 150.2L370.579 186.44L370.658 314.708L431.785 350.11L431.785 150.2Z" fill="#204E52"/>
<path d="M254 42V112.714L367.342 178L428 142.267L254 42Z" fill="#40B2B9"/>
</g>
<defs>
<clipPath id="clip0_0_1">
<rect width="500" height="500" fill="white"/>
</clipPath>
</defs>
</svg>
